<svg xmlns="http://www.w3.org/2000/svg" width="177" height="96" fill="none" viewBox="0 0 177 96"><mask id="a" width="178" height="96" x="-1" y="0" maskUnits="userSpaceOnUse" style="mask-type:luminance"><path fill="#fff" d="M176.825 0H0v95.621h176.825z"/></mask><g mask="url(#a)"><path fill="#c2b59b" d="M87.744 10.246c.018-.415.335-.765.764-.765.4 0 .782.352.764.765-.02.413-.337.763-.764.763-.4 0-.783-.352-.764-.763M68.95 30.54c-.4 0-.781-.351-.763-.764s.336-.764.763-.764c.4 0 .783.351.765.764s-.336.764-.765.764M108.063 29.012c.4 0 .783.351.764.764-.018.414-.335.764-.764.764-.4 0-.783-.351-.763-.764.018-.414.336-.764.763-.764M87.744 49.305c.018-.414.335-.763.764-.763.4 0 .782.352.764.763-.02.415-.337.764-.764.764-.4 0-.783-.351-.764-.764M68.95 48.542c.4 0 .783.352.765.763-.019.415-.336.764-.765.764-.4 0-.781-.351-.763-.764s.336-.763.763-.763M48.646 49.305c.018-.414.335-.763.764-.763.4 0 .783.352.765.763-.019.415-.337.764-.765.764-.4 0-.782-.351-.764-.764M126.856 49.305c.019-.414.336-.763.765-.763.4 0 .782.352.763.763-.019.415-.336.764-.763.764-.4 0-.783-.351-.765-.764M108.063 50.07c-.4 0-.783-.352-.763-.765.018-.414.336-.763.763-.763.4 0 .783.352.764.763-.018.414-.335.764-.764.764M146.396 68.837c.02-.415.337-.765.765-.765.4 0 .782.352.764.764-.018.414-.336.765-.764.765-.4-.001-.783-.352-.765-.764M166.718 89.13c-.4 0-.783-.352-.764-.764.018-.414.335-.763.764-.763.4 0 .782.351.763.763-.018.415-.335.764-.763.764M147.161 89.13c-.4 0-.783-.352-.765-.764.02-.414.337-.763.765-.763.4 0 .782.351.764.763-.018.415-.336.764-.764.764M127.621 89.13c-.4 0-.783-.352-.765-.764.019-.414.336-.763.765-.763.4 0 .782.351.763.763-.019.415-.336.764-.763.764M126.856 68.837c.019-.415.336-.765.765-.765.4 0 .782.352.763.764-.019.414-.336.765-.763.765-.4-.001-.783-.352-.765-.764M108.063 87.603c.4 0 .783.351.764.763-.018.415-.335.764-.764.764-.4 0-.783-.352-.763-.764.018-.413.336-.763.763-.763M108.063 69.6c-.4 0-.783-.352-.763-.764.018-.414.336-.765.763-.765.4 0 .783.352.764.765-.018.413-.335.764-.764.764M88.508 69.6c-.4 0-.783-.352-.764-.764.018-.414.335-.765.764-.765.4 0 .782.352.764.765-.02.413-.337.764-.764.764M88.508 87.603c.4 0 .782.351.764.763-.02.415-.337.764-.764.764-.4 0-.783-.352-.764-.764.018-.413.335-.763.764-.763M68.95 87.603c.4 0 .783.351.765.763-.019.415-.336.764-.765.764-.4 0-.781-.352-.763-.764s.336-.763.763-.763M50.175 88.366c-.019.415-.337.764-.765.764-.4 0-.782-.352-.764-.764.018-.414.335-.763.764-.763.399 0 .783.351.765.763M29.853 89.13c-.4 0-.782-.352-.764-.764.019-.414.336-.763.764-.763.4 0 .782.351.764.763-.018.415-.336.764-.764.764M10.298 89.13c-.4 0-.783-.352-.765-.764.019-.414.336-.763.765-.763.4 0 .782.351.764.763-.019.415-.337.764-.764.764M29.09 68.837c.018-.415.335-.765.763-.765.4 0 .782.352.764.764-.018.414-.336.765-.764.765-.4-.001-.782-.352-.764-.764M68.95 69.6c-.4 0-.781-.352-.763-.764.019-.414.336-.765.763-.765.4 0 .783.352.765.765s-.336.764-.765.764M49.41 69.6c-.4 0-.782-.352-.764-.764.018-.414.335-.765.764-.765.4 0 .783.352.765.765s-.337.764-.765.764M87.744 29.776c.018-.414.335-.764.764-.764.4 0 .782.351.764.764-.02.414-.337.764-.764.764-.4 0-.783-.351-.764-.764"/><mask id="b" width="177" height="96" x="0" y="0" maskUnits="userSpaceOnUse" style="mask-type:luminance"><path fill="#fff" d="M.264.207h176.489v95.304H.264z"/></mask><g mask="url(#b)"><path fill="#c2b59b" d="m176.676 88.546-1.655 1.652q-1.314 1.31-2.626 2.619-.306.304-.608.608c-2.11 2.096-5.378 2.647-8.08 1.427a7 7 0 0 1-2.058-1.427l-1.655-1.652q-1.314-1.309-2.626-2.619l-.429-.428q-.738.734-1.475 1.472-1.312 1.31-2.626 2.619l-.609.608a7 7 0 0 1-1.08.878 7.1 7.1 0 0 1-2.778 1.101 7.34 7.34 0 0 1-3.564-.299q-.009-.002-.016-.006-.026-.007-.052-.018a7 7 0 0 1-.585-.232 7.2 7.2 0 0 1-2.063-1.424l-1.655-1.652-2.626-2.619-.429-.428q-.737.734-1.474 1.472l-2.192 2.186c-.339.343-.672.697-1.025 1.024l-.018.017a7.1 7.1 0 0 1-3.527 1.902l-.02.005-.043.008a7.3 7.3 0 0 1-3.713-.194q-.024-.007-.049-.017-.038-.011-.075-.024a7.006 7.006 0 0 1-2.695-1.68l-1.655-1.652q-1.313-1.309-2.626-2.619l-.429-.428q-.738.734-1.474 1.472l-2.191 2.186c-.339.343-.672.697-1.025 1.024l-.019.017a7 7 0 0 1-1.091.88 7.2 7.2 0 0 1-2.772 1.095c-1.198.2-2.424.1-3.566-.29l-.01-.004-.061-.021a7 7 0 0 1-.578-.23 7 7 0 0 1-2.059-1.43l-1.655-1.652-2.627-2.619-.428-.428q-.738.734-1.475 1.472-1.096 1.092-2.191 2.186c-.338.343-.672.697-1.026 1.024l-.017.017c-2.111 2.095-5.37 2.647-8.074 1.427a7.1 7.1 0 0 1-2.063-1.427l-1.655-1.652-2.626-2.619-.428-.428-1.475 1.472q-1.096 1.092-2.19 2.186c-.34.343-.673.697-1.026 1.024q-.01.008-.018.017a7 7 0 0 1-1.056.863 7.1 7.1 0 0 1-2.802 1.116 7.34 7.34 0 0 1-4.216-.557 7.2 7.2 0 0 1-2.065-1.423l-1.654-1.65-2.626-2.621-.427-.425-2.89 2.89c-.592.592-1.171 1.207-1.781 1.782l-.026.024q-.451.443-.964.793a7.2 7.2 0 0 1-2.9 1.183 7.3 7.3 0 0 1-3.712-.342q-.02-.006-.039-.014a8 8 0 0 1-.463-.188 7 7 0 0 1-2.06-1.431l-1.655-1.652-2.626-2.619-.43-.428-1.474 1.472-2.19 2.186c-.338.343-.672.697-1.026 1.024q-.01.008-.017.017c-2.116 2.09-5.372 2.649-8.076 1.428a7.1 7.1 0 0 1-2.062-1.428l-1.655-1.652q-1.313-1.309-2.626-2.619l-.431-.43q-1.448 1.448-2.897 2.894c-.595.593-1.173 1.207-1.784 1.783q-.014.012-.025.024a7.16 7.16 0 0 1-3.862 1.98 7.34 7.34 0 0 1-4.223-.558 7.2 7.2 0 0 1-2.053-1.423q-.827-.825-1.655-1.65L.946 89.152l-.608-.608a.23.23 0 0 1-.074-.183.23.23 0 0 1 .075-.176l1.655-1.657 2.626-2.628.608-.61a7.2 7.2 0 0 1 3.865-1.978 7.3 7.3 0 0 1 4.221.553 7.1 7.1 0 0 1 2.053 1.426l.976.974 2.33 2.33 1.405 1.403 2.26-2.257 1.84-1.842.607-.61q.016-.016.034-.027l3.046-3.045c.542-.54 1.072-1.1 1.626-1.63l-1.472-1.467-2.626-2.62-.609-.607c-1.611-1.607-2.337-3.904-2.008-6.149.326-2.211 1.72-4.193 3.7-5.23 1.85-.97 4.11-1.105 6.052-.326a7.18 7.18 0 0 1 4.235 4.76 7.26 7.26 0 0 1-1.283 6.317q-.26.332-.557.629l-1.655 1.65-2.626 2.62-.427.428.795.794 2.33 2.33 1.53 1.528a.3.3 0 0 1 .053.045l1.655 1.657 2.193 2.195c.288.282.583.562.863.854q.533-.532 1.067-1.067l2.436-2.435c.394-.394.777-.808 1.186-1.186l.019-.019a.3.3 0 0 1 .044-.038l1.204-1.2 2.436-2.436c.34-.34.671-.695 1.02-1.029l-1.47-1.466-2.625-2.62-.61-.609c-2.119-2.1-2.671-5.397-1.43-8.099a7 7 0 0 1 1.43-2.033l1.656-1.651 2.626-2.62.428-.427-1.474-1.471-2.626-2.62-.61-.607c-2.147-2.116-2.682-5.49-1.386-8.196 1.281-2.675 4.213-4.276 7.151-3.983a7.23 7.23 0 0 1 4.375 2.046l1.649 1.657 3.046 3.056 1.473-1.475q1.313-1.315 2.626-2.628l.61-.61c1.643-1.575 3.892-2.327 6.15-1.984 2.112.32 4.033 1.606 5.112 3.453.582.996.945 2.173.975 3.329a7.4 7.4 0 0 1-.692 3.335c-.898 1.902-2.67 3.318-4.698 3.846a7.17 7.17 0 0 1-6.148-1.246 9 9 0 0 1-.7-.6l-1.655-1.65-2.626-2.621q-.214-.213-.427-.428l-1.468 1.47-2.625 2.627q-.301.3-.603.603l-.005.005-.01.009-1.64 1.636-2.625 2.62-.43.428 1.475 1.47q1.313 1.31 2.627 2.62l.608.608 1.65 1.657 2.617 2.628.427.43 1.475-1.476q1.313-1.313 2.626-2.628l.608-.61c2.113-2.098 5.4-2.655 8.104-1.423a7 7 0 0 1 2.035 1.422q.826.829 1.655 1.658l2.626 2.628.429.429 1.475-1.476 2.626-2.628.608-.61.005-.005q.004-.004.008-.01l1.642-1.636 2.626-2.62.427-.428-1.473-1.47-2.626-2.62-.61-.608a7 7 0 0 1-1.456-2.125 7 7 0 0 1-.53-1.753 7.3 7.3 0 0 1 .004-2.364l.002-.011.01-.055a7.012 7.012 0 0 1 1.971-3.823l.975-.975 2.331-2.325 1.402-1.4-1.473-1.47q-1.314-1.31-2.626-2.62l-.61-.608-1.654-1.65q-1.312-1.31-2.627-2.62l-.428-.428-1.475 1.47-2.19 2.188c-.34.344-.673.697-1.027 1.023l-.017.017c-2.103 2.123-5.415 2.643-8.113 1.41a7 7 0 0 1-2.025-1.41l-1.655-1.65-2.626-2.62-.608-.607a.24.24 0 0 1-.075-.184.23.23 0 0 1 .075-.177c.55-.553 1.104-1.105 1.654-1.657q1.313-1.313 2.626-2.628l.61-.609q.157-.153.322-.296a7.26 7.26 0 0 1 3.541-1.677 7.3 7.3 0 0 1 4.23.552q.6.276 1.136.659.485.344.908.76l.976.977 2.33 2.328 1.403 1.401L79.8 28.34l2.435-2.435c.395-.395.778-.808 1.187-1.187l.017-.017.977-.975 2.33-2.325 1.403-1.399-1.067-1.066q-1.22-1.214-2.437-2.432c-.394-.393-.809-.775-1.187-1.185l-.017-.017q-.24-.241-.453-.5l-.01-.014-.01-.013c-1.241-1.527-1.779-3.514-1.544-5.44q.007-.056.013-.11l.004-.02a6.984 6.984 0 0 1 1.999-4.021l1.654-1.656L87.721.9l.608-.61a.23.23 0 0 1 .18-.074.23.23 0 0 1 .18.075q.828.827 1.655 1.656l2.627 2.628.608.61c1.012.99 1.66 2.263 1.928 3.614a7.3 7.3 0 0 1-.502 4.472 6.8 6.8 0 0 1-1.426 2.032l-1.655 1.65q-1.312 1.31-2.627 2.62-.213.215-.427.428l1.474 1.471 2.03 2.025c.395.395.81.776 1.187 1.185l.017.018.976.974 2.331 2.33 1.402 1.4q.534-.532 1.069-1.067l2.437-2.435c.394-.395.776-.808 1.186-1.186l.018-.019q.217-.214.45-.408a7.15 7.15 0 0 1 3.408-1.567 7.33 7.33 0 0 1 4.627.76 7.3 7.3 0 0 1 1.654 1.216l1.654 1.657 2.626 2.63q.305.303.609.608a.24.24 0 0 1 .075.175.24.24 0 0 1-.075.185l-1.655 1.65-2.626 2.62q-.305.304-.608.609c-2.11 2.103-5.42 2.649-8.119 1.416a6.9 6.9 0 0 1-2.02-1.416l-1.654-1.652-2.626-2.62-.43-.428q-.736.736-1.473 1.471l-2.192 2.187c-.338.344-.671.697-1.025 1.023l-.017.019-1.655 1.65-2.626 2.62-.428.428q.736.735 1.475 1.47l2.626 2.62.608.608c.381.382.712.805.99 1.254a7.3 7.3 0 0 1 .446 6.82 7 7 0 0 1-1.436 2.059l-1.655 1.651q-1.313 1.31-2.626 2.62l-.428.427q.736.735 1.475 1.47l2.626 2.621.594.594.004.005.01.008 1.655 1.657 2.626 2.629.428.428 1.475-1.475 2.626-2.629q.306-.305.608-.61a7.2 7.2 0 0 1 3.859-1.979 7.34 7.34 0 0 1 4.232.566 7.3 7.3 0 0 1 2.048 1.414l1.655 1.656 2.626 2.63q.215.213.429.429l1.475-1.476 2.626-2.63.593-.593h.001l.015-.016 1.655-1.651 2.626-2.62.427-.427-1.473-1.471q-1.314-1.31-2.626-2.62l-.597-.595q-.002 0-.004-.003l-.009-.01-1.654-1.65-2.626-2.62-.43-.429-1.475 1.472-2.626 2.62-.608.608c-1.641 1.579-3.891 2.331-6.149 1.988-2.112-.322-4.035-1.61-5.114-3.457-.583-.997-.946-2.172-.974-3.328a7.4 7.4 0 0 1 .691-3.335c.898-1.9 2.671-3.315 4.698-3.842a7.18 7.18 0 0 1 6.147 1.243q.367.279.7.597l1.655 1.658 2.626 2.627.429.43q.739-.739 1.474-1.477l2.626-2.627.61-.61c2.119-2.103 5.402-2.652 8.107-1.406a7.1 7.1 0 0 1 3.215 2.989 7.2 7.2 0 0 1 .861 4.178 7.14 7.14 0 0 1-2.062 4.37l-1.646 1.65-2.625 2.626-.422.423 1.466 1.469 2.626 2.627.603.602c2.112 2.092 2.667 5.39 1.443 8.084a6.9 6.9 0 0 1-1.443 2.05l-1.647 1.649-2.625 2.627q-.212.21-.423.423l.795.794 2.327 2.33 1.56 1.56.003.004.021.022.965.963 2.331 2.33.745.744c.222.216.445.433.657.655l1.067-1.065 2.436-2.436c.396-.394.777-.808 1.188-1.187l.017-.017.015-.015a.2.2 0 0 1 .041-.033q.597-.596 1.192-1.192 1.219-1.218 2.435-2.435c.342-.34.673-.695 1.021-1.029l-1.469-1.466-2.626-2.62-.609-.608a7.5 7.5 0 0 1-1.778-2.965 7.1 7.1 0 0 1-.222-3.164 7.26 7.26 0 0 1 3.378-5.07c1.997-1.207 4.519-1.335 6.644-.39 1.958.87 3.426 2.656 3.971 4.72a7.15 7.15 0 0 1-1.266 6.195 8 8 0 0 1-.589.674q-.828.825-1.654 1.652-1.314 1.31-2.626 2.619l-.429.428q.398.397.795.795 1.167 1.165 2.331 2.328l1.53 1.529q.02.013.038.03l.015.015 1.655 1.657 2.193 2.194c.289.285.585.565.866.859l1.47-1.472 2.626-2.628.609-.61c2.11-2.097 5.377-2.646 8.079-1.427a7.1 7.1 0 0 1 2.059 1.427q.828.829 1.654 1.657l2.626 2.628q.306.305.609.61a.25.25 0 0 1 .075.174.26.26 0 0 1-.079.192M18.647 87.292l-2.436-2.435c-.395-.395-.81-.777-1.188-1.187q-.007-.01-.017-.017c-1.95-1.931-4.988-2.48-7.488-1.334a6.7 6.7 0 0 0-1.93 1.334l-1.654 1.656q-1.313 1.313-2.626 2.628l-.43.429 1.475 1.47q1.313 1.311 2.627 2.621l.609.607c1.951 1.923 4.99 2.484 7.49 1.337a6.7 6.7 0 0 0 1.928-1.337l1.46-1.458q1.626-1.623 3.25-3.246zm12.68-10.53 2.626-2.62.61-.607a6.71 6.71 0 0 0 1.863-5.708c-.316-2.059-1.598-3.893-3.442-4.87-1.721-.911-3.806-1-5.615-.294-1.934.754-3.404 2.43-3.94 4.432-.534 2-.111 4.223 1.186 5.85q.249.31.529.59l1.655 1.65q1.313 1.31 2.626 2.62.215.213.429.429zm7.149 10.81-2.331-2.33-2.83-2.829q-1.22-1.216-2.437-2.435c-.34-.34-.696-.672-1.029-1.02l-1.277 1.275q-1.755 1.755-3.508 3.504l-2.368 2.366-1.833 1.834-.424.425 1.064 1.065 2.435 2.435c.396.394.81.776 1.188 1.187l.017.017c1.951 1.933 5.002 2.477 7.501 1.328a6.7 6.7 0 0 0 1.917-1.328l.976-.974 2.33-2.33 1.4-1.397q-.396-.399-.791-.793m22.532-36.795 2.626 2.62.608.607c1.498 1.436 3.568 2.175 5.636 1.862 1.926-.292 3.692-1.405 4.73-3.064a6.66 6.66 0 0 0 .452-6.146 6.71 6.71 0 0 0-4.4-3.759 6.72 6.72 0 0 0-6.418 1.695l-1.655 1.657q-1.313 1.313-2.626 2.628l-.428.429zM76.894 28.3q-1.094-1.097-2.193-2.195c-.344-.338-.697-.671-1.024-1.025l-.017-.017q-.487-.48-1.053-.843c-1.891-1.216-4.352-1.427-6.436-.48a6.8 6.8 0 0 0-1.93 1.322l-1.654 1.656-2.626 2.628-.428.429q.736.736 1.475 1.47l2.626 2.621.608.607c1.953 1.926 5.019 2.48 7.516 1.326a6.6 6.6 0 0 0 1.902-1.326l.976-.974 2.33-2.33 1.4-1.398zm22.82 2.536 2.436 2.435c.395.394.809.776 1.187 1.186q.009.009.017.018c1.947 1.945 5.016 2.472 7.514 1.321a6.7 6.7 0 0 0 1.905-1.32q.826-.827 1.654-1.652l2.626-2.62.428-.427-1.474-1.477-2.626-2.628-.608-.61a6.8 6.8 0 0 0-1.917-1.305c-1.743-.786-3.799-.833-5.577-.023a6.6 6.6 0 0 0-1.923 1.329l-1.655 1.656-2.627 2.628q-.21.213-.424.425zm16.293 16.994-2.626-2.628q-.306-.304-.608-.61c-1.5-1.432-3.57-2.17-5.637-1.855-1.925.291-3.693 1.403-4.73 3.06a6.66 6.66 0 0 0-.453 6.144 6.72 6.72 0 0 0 4.403 3.762 6.7 6.7 0 0 0 6.417-1.698l1.654-1.65 2.626-2.62.428-.428zM99.713 89.427q1.22 1.216 2.437 2.435c.395.394.809.776 1.187 1.187l.017.017a6.74 6.74 0 0 0 3.751 1.854l.033.005.038.005c.858.115 1.74.068 2.587-.151q.032-.009.062-.016l.048-.014q.485-.135.953-.347a6.9 6.9 0 0 0 1.946-1.335l.975-.975 2.331-2.329 1.399-1.397q-.395-.397-.792-.792l-2.331-2.329-.793-.793a24 24 0 0 1-.655-.654l-.109-.109a.2.2 0 0 1-.041-.033.2.2 0 0 1-.034-.041q-.599-.6-1.198-1.198l-2.437-2.435c-.34-.34-.695-.673-1.03-1.02q-.395.397-.792.79l-2.329 2.33-2.831 2.829-2.436 2.435c-.34.34-.67.692-1.015 1.025q.53.525 1.06 1.056m-19.556 0q1.22 1.216 2.437 2.435c.394.394.808.776 1.186 1.187q.007.01.018.017c1.95 1.925 4.995 2.477 7.492 1.334a6.7 6.7 0 0 0 1.925-1.334l.976-.974 2.33-2.33q.701-.698 1.4-1.397l-1.47-1.473-2.193-2.194c-.345-.339-.698-.67-1.024-1.025q-.01-.01-.019-.017c-1.948-1.93-4.992-2.476-7.49-1.332a6.7 6.7 0 0 0-1.927 1.332l-1.655 1.656-2.626 2.629-.424.425q.533.527 1.064 1.06m-17.722 1.831c.593.594 1.207 1.172 1.782 1.783l.025.024a6.83 6.83 0 0 0 6.676 1.645l.095-.03q.358-.116.705-.272a6.8 6.8 0 0 0 1.941-1.343l.976-.974 2.33-2.33q.7-.697 1.4-1.398l-.793-.79-2.33-2.33-.794-.793c-.22-.215-.442-.43-.653-.654l-1.384-1.383q-1.218-1.216-2.436-2.435c-.34-.34-.695-.671-1.03-1.018l-1.274 1.275-3.39 3.388q-.01.016-.024.03l-.022.018-.07.068-4.237 4.237-.387.389zM48.614 79.75l-2.33 2.328-2.83 2.83q-1.22 1.216-2.437 2.435c-.34.34-.671.694-1.02 1.028l1.47 1.467 2.625 2.62.61.607a6.7 6.7 0 0 0 3.377 1.788q.019.005.037.007.011.004.022.005a6.74 6.74 0 0 0 3.573-.276q.234-.085.46-.19a6.9 6.9 0 0 0 1.947-1.335l1.646-1.648 2.625-2.627q.212-.21.423-.423l-1.47-1.476-.782-.786-1.882-1.882-.54-.54a.25.25 0 0 1-.063-.063l-3.04-3.039c-.541-.542-1.1-1.07-1.63-1.623zm2.27-22.517 2.627-2.62.608-.609.005-.004.008-.008 1.634-1.635 2.625-2.627q.21-.212.423-.423l-1.47-1.476q-1.31-1.313-2.617-2.628l-.607-.61c-1.93-1.91-4.948-2.474-7.434-1.363a6.7 6.7 0 0 0-3.05 2.738 6.73 6.73 0 0 0-.856 3.912 6.57 6.57 0 0 0 1.921 4.127c.55.55 1.104 1.1 1.654 1.651q1.313 1.31 2.626 2.62.216.213.43.428.735-.739 1.474-1.473m6.46 10.127-2.617-2.628-.55-.552a.2.2 0 0 1-.058-.043l-.04-.051-.003-.007-1.612-1.608q-1.313-1.31-2.626-2.62l-.43-.428-1.474 1.472-2.626 2.62-.608.608c-1.955 1.934-2.498 5.006-1.341 7.502a6.6 6.6 0 0 0 1.341 1.91l1.654 1.65 2.626 2.621q.215.213.43.429.736-.737 1.475-1.472 1.312-1.311 2.626-2.62l.608-.608 1.647-1.649 2.625-2.626q.21-.213.423-.423zm.362 3.304-2.625 2.628-.603.603-1.654 1.65q-1.313 1.31-2.627 2.62l-.427.428 1.279 1.28 3.379 3.378.011.008a.2.2 0 0 1 .04.031l1.649 1.657.791.795 1.874 1.872q.191.193.385.385l1.469-1.47 2.626-2.63q.306-.303.608-.609a.3.3 0 0 1 .05-.039q1.516-1.516 3.032-3.033c.541-.54 1.07-1.1 1.623-1.63l-1.471-1.467q-1.313-1.31-2.626-2.62-.3-.297-.596-.595l-.004-.003-.008-.01-1.655-1.65q-1.313-1.31-2.626-2.62l-.429-.428q-.731.736-1.465 1.47m19.188-3.304-2.626-2.628-.608-.61c-1.94-1.947-5.007-2.474-7.504-1.327a6.6 6.6 0 0 0-1.914 1.328l-1.655 1.656q-1.313 1.313-2.626 2.628l-.428.43 1.475 1.471 2.626 2.62.608.607 1.655 1.65 2.626 2.621q.215.213.428.429l1.475-1.472q1.313-1.311 2.626-2.62l.608-.608 1.655-1.651 2.626-2.62.429-.427zm12.68-48.783q1.22-1.215 2.437-2.432c.395-.393.777-.806 1.187-1.185l.017-.017a6.66 6.66 0 0 0 1.847-3.658 6.8 6.8 0 0 0-.323-3.379 6.587 6.587 0 0 0-1.524-2.36L91.561 3.89l-2.626-2.628-.43-.429-1.474 1.476-2.626 2.63q-.304.303-.608.609a6.64 6.64 0 0 0-1.82 3.519q-.004.008-.004.02l-.006.03a6.68 6.68 0 0 0 .505 3.929c.246.53.558 1.022.93 1.468l.01.01q.041.05.085.1.144.165.299.32l1.655 1.65q1.313 1.312 2.626 2.621.216.214.428.429.537-.532 1.07-1.066m0 19.531q1.22-1.216 2.437-2.432c.395-.394.777-.808 1.187-1.184l.017-.019.976-.974 2.33-2.33q.701-.698 1.4-1.398l-1.47-1.47-2.193-2.196c-.345-.338-.699-.671-1.024-1.025q-.01-.01-.019-.017l-.975-.975-2.331-2.325-1.402-1.4-1.475 1.473-2.03 2.025c-.395.394-.778.806-1.187 1.185l-.017.017-1.655 1.656-2.626 2.628-.424.425 1.063 1.064 2.436 2.436c.395.394.81.776 1.188 1.186q.007.01.017.019l1.655 1.65 2.626 2.62.429.428zm.408 19.125q1.313-1.31 2.627-2.62l.608-.609c1.944-1.944 2.482-5.012 1.326-7.51a6.8 6.8 0 0 0-1.327-1.902l-1.654-1.65q-1.313-1.311-2.627-2.621l-.428-.428-1.475 1.471-2.03 2.027c-.395.392-.778.806-1.187 1.183q-.008.01-.017.018a6.9 6.9 0 0 0-1.363 2.008 6.86 6.86 0 0 0-.544 3.356c.073.731.263 1.452.57 2.115a6.9 6.9 0 0 0 1.336 1.933l1.655 1.652 2.626 2.62.429.428zm6.469 10.127-2.626-2.628-.596-.597-.003-.003-.01-.008-1.654-1.652q-1.313-1.31-2.627-2.62l-.428-.428q-.738.737-1.475 1.471l-2.626 2.62-.608.609q-.002.001-.007.005-.002.005-.008.008l-1.64 1.643-2.626 2.628-.429.429 1.475 1.471 2.626 2.62.609.608c1.951 1.928 5.002 2.48 7.501 1.329a6.7 6.7 0 0 0 1.917-1.329l1.656-1.651 2.626-2.62.427-.428q-.736-.74-1.474-1.477m.36 3.307-2.627 2.62-.608.608c-2.113 2.095-5.37 2.646-8.075 1.426a7.1 7.1 0 0 1-2.063-1.426l-1.655-1.651q-1.312-1.311-2.626-2.62l-.428-.428-1.475 1.47-2.626 2.621q-.306.304-.608.608-.829.825-1.655 1.65l-2.626 2.62-.429.428.796.794 2.331 2.33 1.538 1.537q.023.014.041.035.003 0 .004.003l.976.974 2.33 2.33q.398.395.793.792c.206.2.413.402.612.608q.533-.532 1.066-1.067l2.437-2.435c.394-.394.777-.808 1.187-1.186l.017-.019c2.115-2.088 5.372-2.649 8.076-1.428a7.1 7.1 0 0 1 2.062 1.428l.976.976 2.33 2.329q.701.7 1.403 1.402l1.069-1.068 2.435-2.435c.395-.396.778-.808 1.187-1.188q.009-.007.018-.017l.002-.002a.2.2 0 0 1 .043-.036q.603-.6 1.204-1.202l2.435-2.435c.341-.34.672-.695 1.021-1.029l-1.469-1.466-2.626-2.62q-.306-.303-.609-.608l-1.655-1.651-2.626-2.62-.43-.428q-.736.742-1.474 1.476m19.196-3.307-2.626-2.628-.608-.61c-1.957-1.907-4.977-2.483-7.477-1.34a6.8 6.8 0 0 0-1.942 1.34l-1.655 1.657-2.626 2.628-.427.43 1.474 1.471q1.314 1.31 2.626 2.62l.608.607 1.655 1.65 2.627 2.621.428.429 1.475-1.472 3.234-3.228.006-.005.009-.008 1.64-1.638 2.626-2.62.429-.427zm.361 3.307-2.626 2.62q-.306.304-.609.608l-.005.005-.009.009-1.64 1.636-2.626 2.62-.429.428.795.794 2.331 2.33 1.54 1.539.005.002q.02.013.038.032l.975.975 2.331 2.33.793.791c.206.202.412.403.61.61l1.067-1.067 2.436-2.435c.395-.396.777-.808 1.188-1.187l.017-.018.002-.002a.2.2 0 0 1 .044-.036l1.202-1.202q1.22-1.218 2.436-2.435c.341-.34.673-.694 1.02-1.029l-1.469-1.466-2.626-2.62-.608-.608-1.655-1.651-2.626-2.62-.429-.428q-.737.74-1.473 1.475m12.719-13.432q1.312-1.314 2.625-2.627.301-.301.602-.604c1.955-1.941 2.5-5.01 1.335-7.51a6.65 6.65 0 0 0-2.783-2.993 6.77 6.77 0 0 0-3.879-.808 6.66 6.66 0 0 0-4.075 1.9l-1.655 1.656-2.626 2.63-.428.428 1.475 1.471 2.626 2.62.595.595.005.004.008.008 1.655 1.652q1.313 1.31 2.626 2.62l.428.427zm0 19.53 2.625-2.626q.301-.304.602-.604c1.967-1.926 2.491-5.012 1.338-7.504a6.5 6.5 0 0 0-1.338-1.907l-1.647-1.65-2.625-2.626-.423-.423-1.474 1.47-2.626 2.62-.608.609q-.828.826-1.655 1.656l-2.626 2.628-.429.429 1.474 1.471 2.627 2.62.609.608 1.654 1.65 2.626 2.621.428.428zm6.461 10.126q-1.095-1.097-2.192-2.195c-.344-.338-.697-.67-1.025-1.025l-.004-.005-.004-.003-.009-.01-1.238-1.24-2.433-2.435c-.34-.34-.693-.671-1.027-1.018l-.791.79-2.331 2.33-2.829 2.829-2.437 2.435c-.339.338-.668.692-1.016 1.025q.53.529 1.06 1.059l2.437 2.435c.394.394.809.776 1.187 1.186q.007.01.017.018a6.65 6.65 0 0 0 3.125 1.734l.051.011.002.001a6.75 6.75 0 0 0 3.845-.224q.237-.087.468-.193a6.7 6.7 0 0 0 1.911-1.33l.977-.974 2.331-2.33 1.399-1.397zm13.087-10.129 2.626-2.62.61-.607c1.46-1.495 2.197-3.588 1.871-5.67-.308-1.966-1.475-3.75-3.197-4.765-1.858-1.096-4.223-1.217-6.182-.304-1.791.835-3.124 2.46-3.628 4.369a6.64 6.64 0 0 0 1.169 5.737c.169.222.355.431.548.632l1.655 1.652q1.314 1.31 2.626 2.619l.429.429q.737-.735 1.473-1.471m7.148 10.81-2.33-2.33-2.831-2.829q-1.219-1.216-2.436-2.435c-.34-.34-.695-.672-1.03-1.02q-.395.396-.791.791l-2.33 2.329-2.83 2.83q-1.219 1.216-2.436 2.435c-.341.338-.669.692-1.016 1.025l1.059 1.059q1.22 1.216 2.437 2.435c.394.394.809.776 1.186 1.187q.008.01.018.017a6.83 6.83 0 0 0 3.765 1.853l.021.002.051.007a6.7 6.7 0 0 0 2.583-.147l.012-.002.1-.027q.05-.015.101-.028.002-.003.008-.003a6.5 6.5 0 0 0 .837-.313 6.8 6.8 0 0 0 1.941-1.342l1.655-1.651 2.626-2.62.427-.427zm18.878-.68-2.626-2.63-.608-.61c-1.948-1.934-5.008-2.476-7.505-1.328a6.7 6.7 0 0 0-1.914 1.329l-1.654 1.657-2.627 2.628q-.214.214-.428.429l1.474 1.471 2.626 2.62.609.607c1.947 1.936 5.007 2.477 7.505 1.329a6.7 6.7 0 0 0 1.914-1.329l1.655-1.65 2.626-2.62q.214-.215.429-.428z"/></g></g></svg>